<?xml version="1.0" encoding="utf-8"?>
<!-- Generator: Adobe Illustrator 19.0.0, SVG Export Plug-In . SVG Version: 6.00 Build 0)  -->
<svg version="1.1" id="레이어_1" xmlns="http://www.w3.org/2000/svg" xmlns:xlink="http://www.w3.org/1999/xlink" x="0px"
	 y="0px" viewBox="-397.5 409.6 154 23.4" style="enable-background:new -397.5 409.6 154 23.4;" xml:space="preserve">
<style type="text/css">
	.st0{fill:#003894;}
</style>
<g>
	<g>
		<path id="XMLID_50_" class="st0" d="M-397.5,410h5.2v10l0,0c0.5-0.8,1.1-1.6,1.6-2.6l5.2-7.6h6.4l-7.6,9.7l7.9,13h-6l-5.6-9.5
			l-1.9,2.4v7.4h-5.2"/>
	</g>
	<g>
		<path id="XMLID_49_" class="st0" d="M-373.2,432.8l-6-22.7h5c0,0,3.2,12.4,3.9,14.5l1.8-14.5h7.6c0,0,1.1,11.8,1.3,14.3l0,0
			c0.5-2.4,4-14.3,4-14.3h4.7l-6.4,22.7h-5c0,0-2.4-14.2-2.6-16.7l0,0c-0.3,2.6-3.1,16.7-3.1,16.7"/>
	</g>
	<g>
		<path id="XMLID_46_" class="st0" d="M-348.1,426.9l-1.6,5.8h-5.3l7.1-22.7h6.6l7.1,22.7h-5.5l-1.8-5.8 M-342.3,423l-1.4-4.8
			c-0.3-1.3-0.8-3.1-1.1-4.3h-0.2c-0.3,1.3-0.6,3.1-1,4.3l-1.4,4.8H-342.3z"/>
	</g>
	<g>
		<path id="XMLID_45_" class="st0" d="M-334,432.8V410h6.1l4.8,8.4c1.3,2.4,2.7,5.3,3.7,7.7l0,0c-0.3-3.1-0.5-6.1-0.5-9.5V410h4.8
			v22.7h-5.5l-4.8-8.7c-1.3-2.4-2.9-5.3-4-8.1h-0.2c0.2,3.1,0.3,6.3,0.3,10v6.9"/>
	</g>
	<path class="st0" d="M-294,419.8h-5.6v1.1h0.6c1.6,0,1.6,1.9,1.6,1.9v5.6c-0.5,0.2-1.4,0.3-2.6,0.3c-4.2,0-7.2-2.7-7.2-7.4
		c0-5,3.2-7.4,7.6-7.4c2.6,0,4,0.3,5.3,1l1.1-4.2c-1.1-0.5-3.5-1.1-6.4-1.1c-7.4,0-13,4.3-13,11.9c0,3.4,1.1,6.4,3.2,8.4
		c2.1,2.1,5.2,3.1,9.3,3.1c3.1,0,6.1-0.8,7.7-1.3v-9.5C-292.3,422.2-292.2,419.8-294,419.8z"/>
	<path class="st0" d="M-248.4,410v6.6c0,3.4,0.2,6.4,0.5,9.5c-1-2.4-2.4-5.3-3.7-7.7l-4.8-8.4h-6.1v22.9h4.7v-6.9
		c0-3.7,0-6.9-0.2-10h0.2c1.1,2.7,2.7,5.6,4,8.1l4.8,8.7h5.5V410H-248.4z"/>
	<path class="st0" d="M-267.2,410h-5.2v1.3h0.5c0.6,0,0.8,0.2,1,0.5c0.2,0.3,0.3,0.5,0.3,0.8v20.3h5.2v-21.4
		C-265.4,410.1-267.2,410-267.2,410z"/>
	<path class="st0" d="M-275.1,410.1h-5v1.3h0.5c0.3-0.2,0.6,0,0.8,0.3c0.2,0.3,0.3,0.5,0.3,0.8l-0.2,11.8c0,3.5-1.3,4.5-3.5,4.5
		c-1,0-1.9-0.3-2.6-0.5l-0.6,4.2c1.1,0.3,2.6,0.5,3.9,0.5c5.2,0,8.2-2.3,8.2-8.7v-2.1v-10.1v-0.5
		C-273.3,410.3-275.1,410.1-275.1,410.1z"/>
</g>
</svg>
