<?xml version="1.0" encoding="utf-8"?>
<!-- Generator: $$$/GeneralStr/196=Adobe Illustrator 27.6.0, SVG Export Plug-In . SVG Version: 6.00 Build 0)  -->
<svg version="1.1" id="Ebene_1" xmlns="http://www.w3.org/2000/svg" xmlns:xlink="http://www.w3.org/1999/xlink" x="0px" y="0px"
	 viewBox="0 0 425.2 99.2" style="enable-background:new 0 0 425.2 99.2;" xml:space="preserve">
<style type="text/css">
	.st0{fill:#1D3C73;}
</style>
<path class="st0" d="M101.2,46.3c-0.5-0.4-1.1-0.8-1.6-1.2c-1.2-0.9-2.4-1.7-3.6-2.5c-2.4-1.5-5-2.8-7.7-3.8
	c-5.5-2.1-11.4-3.1-17.3-3.1c-5.9,0-11.8,1-17.3,3.1c-2.7,1-5.3,2.3-7.7,3.8c-1.3,0.8-2.5,1.6-3.6,2.5c-0.5,0.4-1.1,0.8-1.6,1.2
	c-0.3,0.2-0.5,0.4-0.8,0.7c0.1,0.4,0.2,0.8,0.3,1.1c1.5,5.9,4,11.6,7.7,16.5c6.1-6.1,14.4-9.8,23-9.8h0c8.7,0,17,3.7,23,9.8
	c3.7-4.9,6.2-10.6,7.7-16.5c0.1-0.4,0.2-0.8,0.3-1.1C101.7,46.7,101.5,46.5,101.2,46.3"/>
<path class="st0" d="M286.9,75.3c5.8,2.3,12.5,2.8,18.8,2.4c5.1-0.3,10.4-2,13.8-6c3.4-4,4.6-10.5,2.7-15.5
	c-1.9-5.1-7.6-7.7-12.6-8.6c-2.4-0.5-5.2-0.5-7.2-2.1c-2.3-1.9-1.1-5.5,1.4-6.5c3.2-1.3,7.2-0.6,10.4,0.1c4,0.8,6.7,1.7,6.7,1.7
	v-8.2v-2.8c0,0-5.3-1.4-10.1-1.8c-5.6-0.5-11.7-0.5-16.9,1.9c-4.9,2.2-7.5,6.7-8,12c-0.5,5.6,1,10.8,6.2,13.6c2.5,1.3,5.2,2,7.9,2.5
	c2.3,0.5,5.4,0.8,7,2.6c1.6,1.8,0.6,4.4-1.3,5.5c-1.8,1.1-3.8,1-5.8,0.9c-2.4-0.1-4.7-0.2-7.1-0.6c-2-0.3-4.3-0.8-6-1.9
	C286.9,68,286.9,71.6,286.9,75.3"/>
<path class="st0" d="M370.9,45.9c2.9-4.6,9.3-5.9,13.9-3c5,3.3,6.1,10.8,3.6,16c-2.6,5.3-9.5,7.2-14.5,4.1c-5.2-3.2-6.2-11-3.5-16.2
	C370.5,46.5,370.7,46.2,370.9,45.9 M355.7,46.1c-1.5,6.1-1.1,13,1.6,18.7c2.5,5.2,7,9.2,12.3,11.3c10.5,4.1,23.7,1,30.1-8.6
	c6.7-10.2,5-25.9-4.6-33.6c-9.1-7.3-23.6-7.1-32.4,0.7C359.2,37.5,356.8,41.7,355.7,46.1"/>
<path class="st0" d="M25.5,69.2c3,6.4,7,12.4,12,17.6c0.5-2.7,0.9-5.4,1.8-8c1-2.9,2.3-5.7,3.9-8.3c0.8-1.2,1.6-2.4,2.5-3.5l0.2-0.3
	c-0.2-0.3-1-1.3-1.2-1.6c-0.5-0.7-0.9-1.3-1.3-2c-1.7-2.7-3-5.5-4.1-8.4c-4.6-12.2-4.8-26.3-0.7-38.7c0.8-2.5,1.9-5,3.1-7.3H25.4
	h-3.3c0,0-0.2,0.7-0.2,0.7c-0.5,1.6-1,3.3-1.4,5c-1.6,6.5-2.5,13.3-2.5,20C17.9,46.4,20.4,58.3,25.5,69.2"/>
<path class="st0" d="M116.4,69.2c-3,6.4-7,12.4-12,17.6c-0.5-2.7-0.9-5.4-1.8-8c-1-2.9-2.3-5.7-3.9-8.3c-0.8-1.2-1.6-2.4-2.5-3.5
	l-0.2-0.3c0.2-0.3,1-1.3,1.2-1.6c0.5-0.7,0.9-1.3,1.3-2c1.6-2.7,3-5.5,4.1-8.4c4.6-12.2,4.8-26.3,0.7-38.7c-0.8-2.5-1.9-5-3.1-7.3
	h16.4h3.3c0,0,0.2,0.7,0.2,0.7c0.5,1.6,1,3.3,1.4,5c1.6,6.5,2.5,13.3,2.5,20C123.9,46.4,121.4,58.3,116.4,69.2"/>
<path class="st0" d="M158.9,62.3l-0.2,0.4c-0.6,1-1.3,1.9-2.2,2.6c-1.9,1.5-4.4,1.7-6.7,1.6c-2.3-0.2-4.6-0.9-6.2-2.5
	c-1.6-1.6-2.3-3.9-2.5-6.1v0c-0.1-0.6-0.1-1.2-0.1-1.8h32.2h1.8c0.1-1.1,0.2-2.2,0.2-3.3c0-9.5-4.2-19-13.6-23.1
	c-1.5-0.7-3.1-1.2-4.8-1.6c-0.1,0-0.1,0-0.2,0c0,0-0.1,0-0.1,0c-1.8-0.4-3.7-0.6-5.6-0.6h-0.2h-0.2c-1.9,0-3.8,0.2-5.6,0.6
	c0,0-0.1,0-0.1,0c-0.1,0-0.1,0-0.2,0c-1.6,0.4-3.2,0.9-4.8,1.6c-9.4,4.1-13.6,13.7-13.6,23.1c0,9.5,4.2,19,13.6,23.1
	c1.5,0.7,3.1,1.2,4.8,1.6c0.1,0,0.1,0,0.2,0c0,0,0.1,0,0.1,0c1.8,0.4,3.7,0.6,5.6,0.6h0.2h0.2c1.9,0,3.8-0.2,5.6-0.6
	c0.1,0,0.1,0,0.1,0c0.1,0,0.1,0,0.2,0c1.6-0.4,3.2-0.9,4.8-1.6c6.3-2.8,10.3-8,12.2-13.9H158.9z M144.8,40.5c5.7-4.5,14.2-1,15.4,6
	c-6.3,0-12.6,0-18.9,0C141.7,44.2,142.9,42,144.8,40.5"/>
<path class="st0" d="M224,37.7c-3.5-5.5-9.2-9.1-15.7-9.4c-3.1-0.2-6.3,0.3-9.2,1.6c-2.4,1.1-4.2,2.7-5.8,4.8V12.2h-14.5v64h14.5
	v-4.8c2.7,4.4,8.2,6.3,13.2,6.3c5.5,0.1,10.6-2.2,14.4-6.1C229.4,63,230.4,47.8,224,37.7 M199,63.7c-5.5-2.1-7.6-8.5-6.4-13.9
	c1.2-5.5,5.8-9.1,11.4-8.7c12.2,1.1,13,21.2,0.9,23.1C202.9,64.6,200.8,64.4,199,63.7"/>
<path class="st0" d="M266.2,29.7v5c-1.2-1.6-2.4-3-4.1-4c-2.2-1.3-4.8-2-7.3-2.2c-5.2-0.5-10.7,0.5-15,3.6
	c-4.4,3.2-6.8,8.4-7.8,13.6c-1.1,5.9-0.8,12.3,1.2,18c2.9,7.9,9.5,13.6,18,14c5.6,0.3,11.4-2,14.9-6.4v5.1h14.4V29.7H266.2z
	 M252.5,63.7c-5.5-2.1-7.6-8.5-6.4-13.9c1.2-5.5,5.8-9.1,11.4-8.7c12.2,1.1,13,21.2,0.9,23.1C256.5,64.6,254.4,64.4,252.5,63.7"/>
<path class="st0" d="M354.6,65.7c-3.4,0.1-8.6,0.7-10-3.4c-0.7-2-0.6-4.6-0.6-6.7l0,0V40.8h9.8V29.6h-9.8V12.4h-14.4v17.2h-5v11.1h5
	v16.8h0c0,6.8,0,15.7,7.2,18.8c2.6,1.1,5.5,1.4,8.4,1.5c1.9,0,3.9,0,5.8-0.2c1.1-0.1,2.2-0.2,3.3-0.3l0.3-0.1
	C354.6,77.3,354.6,69.4,354.6,65.7"/>
</svg>
